<svg width="54" height="54" viewBox="0 0 54 54" fill="none" xmlns="http://www.w3.org/2000/svg">
<path d="M47.25 33.5054V49.2554C47.25 50.4489 46.7759 51.5935 45.932 52.4374C45.0881 53.2813 43.9435 53.7554 42.75 53.7554H11.25C10.0565 53.7554 8.91193 53.2813 8.06802 52.4374C7.22411 51.5935 6.75 50.4489 6.75 49.2554V33.5054H47.25ZM36 13.2554C36.5967 13.2554 37.169 13.4925 37.591 13.9144C38.0129 14.3364 38.25 14.9087 38.25 15.5054V17.7554H42.75C43.9435 17.7554 45.0881 18.2295 45.932 19.0735C46.7759 19.9174 47.25 21.062 47.25 22.2554V29.0054H6.75V22.2554C6.75 21.062 7.22411 19.9174 8.06802 19.0735C8.91193 18.2295 10.0565 17.7554 11.25 17.7554H15.75V15.5054C15.75 14.9087 15.9871 14.3364 16.409 13.9144C16.831 13.4925 17.4033 13.2554 18 13.2554C18.5967 13.2554 19.169 13.4925 19.591 13.9144C20.0129 14.3364 20.25 14.9087 20.25 15.5054V17.7554H33.75V15.5054C33.75 14.9087 33.9871 14.3364 34.409 13.9144C34.831 13.4925 35.4033 13.2554 36 13.2554Z" fill="#015190"/>
</svg>
