<svg width="48" height="48" viewBox="0 0 48 48" fill="none" xmlns="http://www.w3.org/2000/svg">
<path d="M16.7834 28.8882C16.782 28.8868 16.7813 28.886 16.7813 28.886M41 36.57V41.0001H7V36.57C7 35.1747 8.06434 33.6031 10.0628 32.145C11.9322 30.7811 14.4166 29.6733 16.8967 29.0647C16.9081 29.0852 16.9201 29.1076 16.9329 29.1319C16.9604 29.1843 16.9875 29.2383 17.0182 29.2994L17.0219 29.3068C17.0501 29.3629 17.0825 29.4277 17.1151 29.4897L17.3963 30.0238H18H22.0639C22.9853 30.0236 23.435 30.0237 23.89 30.0238C24.3346 30.0239 24.7845 30.024 25.6851 30.0238H29.7493H30.3529L30.6341 29.4897C30.7147 29.3366 30.8425 29.1513 30.965 29.0334C30.9656 29.0328 30.9662 29.0323 30.9667 29.0317C33.492 29.6327 36.0335 30.7561 37.9372 32.145C39.9357 33.6031 41 35.1747 41 36.57Z" stroke="#015190" stroke-width="2"/>
<path fill-rule="evenodd" clip-rule="evenodd" d="M16 37.0147C16.5384 37.0147 17 36.5742 17 36C17 35.4258 16.5384 34.9853 16 34.9853C15.4616 34.9853 15 35.4258 15 36C15 36.5742 15.4616 37.0147 16 37.0147ZM16 39C17.6569 39 19 37.6569 19 36C19 34.3431 17.6569 33 16 33C14.3431 33 13 34.3431 13 36C13 37.6569 14.3431 39 16 39Z" fill="#015190"/>
<path d="M32 38H30V36L31 34H35L36 36V38H34" stroke="#015190" stroke-width="2" stroke-linejoin="round"/>
<path d="M33 34C33.5 33.3333 34 30.5 33.5 29.5" stroke="#015190" stroke-width="2"/>
<path d="M15.7071 34C15.2071 33.3333 14.7071 30.5 15.2071 29.5" stroke="#015190" stroke-width="2"/>
<path d="M33 16C33 20.9727 28.9727 25 24 25C19.0273 25 15 20.9727 15 16C15 11.0273 19.0273 7 24 7C28.9727 7 33 11.0273 33 16Z" stroke="#015190" stroke-width="2"/>
</svg>
