<svg width="36" height="36" viewBox="0 0 36 36" fill="none" xmlns="http://www.w3.org/2000/svg">
<path fill-rule="evenodd" clip-rule="evenodd" d="M32.25 33H3.75V31.5H32.25V33Z" fill="#015190"/>
<path fill-rule="evenodd" clip-rule="evenodd" d="M18 5.25C18.4142 5.25 18.75 5.58579 18.75 6V10.5C18.75 10.9142 18.4142 11.25 18 11.25C17.5858 11.25 17.25 10.9142 17.25 10.5V6C17.25 5.58579 17.5858 5.25 18 5.25Z" fill="#015190"/>
<path fill-rule="evenodd" clip-rule="evenodd" d="M15 8.25C15 7.83578 15.3358 7.5 15.75 7.5H20.25C20.6642 7.5 21 7.83578 21 8.25C21 8.66422 20.6642 9 20.25 9H15.75C15.3358 9 15 8.66422 15 8.25Z" fill="#015190"/>
<path fill-rule="evenodd" clip-rule="evenodd" d="M21 4.5H15C14.5858 4.5 14.25 4.83579 14.25 5.25V11.25C14.25 11.6642 14.5858 12 15 12H21C21.4142 12 21.75 11.6642 21.75 11.25V5.25C21.75 4.83579 21.4142 4.5 21 4.5ZM15 3H21C22.2427 3 23.25 4.00736 23.25 5.25V11.25C23.25 12.4927 22.2427 13.5 21 13.5H15C13.7573 13.5 12.75 12.4927 12.75 11.25V5.25C12.75 4.00736 13.7573 3 15 3Z" fill="#015190"/>
<path fill-rule="evenodd" clip-rule="evenodd" d="M6.75 12.75C6.75 11.5073 7.75732 10.5 9 10.5H12.9445V12H9C8.58578 12 8.25 12.3358 8.25 12.75V31.5H6.75V12.75Z" fill="#015190"/>
<path fill-rule="evenodd" clip-rule="evenodd" d="M29.2501 12.75C29.2501 11.5073 28.2428 10.5 27.0001 10.5H23.0557V12H27.0001C27.4144 12 27.7501 12.3358 27.7501 12.75V31.5H29.2501V12.75Z" fill="#015190"/>
<path fill-rule="evenodd" clip-rule="evenodd" d="M18 25.5C17.1716 25.5 16.5 26.1716 16.5 27V32.25H15V27C15 25.3432 16.3432 24 18 24C19.6568 24 21 25.3432 21 27V32.25H19.5V27C19.5 26.1716 18.8284 25.5 18 25.5Z" fill="#015190"/>
<path fill-rule="evenodd" clip-rule="evenodd" d="M13.5 18V15H10.5V18H13.5Z" fill="#015190"/>
<path fill-rule="evenodd" clip-rule="evenodd" d="M13.5 22.5V19.5H10.5V22.5H13.5Z" fill="#015190"/>
<path fill-rule="evenodd" clip-rule="evenodd" d="M19.5 18V15H16.5V18H19.5Z" fill="#015190"/>
<path fill-rule="evenodd" clip-rule="evenodd" d="M19.5 22.5V19.5H16.5V22.5H19.5Z" fill="#015190"/>
<path fill-rule="evenodd" clip-rule="evenodd" d="M25.5 18V15H22.5V18H25.5Z" fill="#015190"/>
<path fill-rule="evenodd" clip-rule="evenodd" d="M25.5 22.5V19.5H22.5V22.5H25.5Z" fill="#015190"/>
</svg>
