<svg width="16" height="20" viewBox="0 0 16 20" fill="none" xmlns="http://www.w3.org/2000/svg">
<path d="M9.83268 0.833984H2.49935C2.01312 0.833984 1.5468 1.02714 1.20299 1.37096C0.85917 1.71477 0.666016 2.18109 0.666016 2.66732V17.334C0.666016 17.8202 0.85917 18.2865 1.20299 18.6303C1.5468 18.9742 2.01312 19.1673 2.49935 19.1673H13.4993C13.9856 19.1673 14.4519 18.9742 14.7957 18.6303C15.1395 18.2865 15.3327 17.8202 15.3327 17.334V6.33398L9.83268 0.833984ZM5.70585 13.8415C5.4226 14.1073 5.0046 14.2265 4.51785 14.2265C4.42347 14.2275 4.32913 14.222 4.23552 14.21V15.5172H3.41602V11.9092C3.78585 11.854 4.15954 11.8288 4.53343 11.834C5.04401 11.834 5.40702 11.9312 5.65177 12.1264C5.8846 12.3116 6.04226 12.615 6.04226 12.9725C6.04135 13.3318 5.92218 13.6352 5.70585 13.8415ZM9.1956 15.0836C8.8106 15.4035 8.22485 15.5557 7.50893 15.5557C7.07993 15.5557 6.77652 15.5282 6.57026 15.5007V11.9101C6.94023 11.8561 7.31381 11.8306 7.68768 11.834C8.3816 11.834 8.8326 11.9587 9.1846 12.2245C9.56501 12.5068 9.80335 12.9569 9.80335 13.6032C9.80335 14.3026 9.5476 14.7857 9.1956 15.0836ZM12.5827 12.5398H11.1783V13.3749H12.491V14.0477H11.1783V15.5181H10.3478V11.8615H12.5827V12.5398ZM9.83268 7.25065H8.91601V2.66732L13.4993 7.25065H9.83268Z" fill="#FFA000"/>
</svg>
