<svg width="26" height="26" viewBox="0 0 26 26" fill="none" xmlns="http://www.w3.org/2000/svg">
<path d="M14.1018 15.447L14.162 15.3671L14.1018 15.447C14.3129 15.6062 14.5327 15.749 14.7589 15.8768L16.8263 20.7564V21.2529C16.8263 22.5963 15.7332 23.6893 14.3898 23.6893C13.0465 23.6893 11.9534 22.5963 11.9534 21.2529V16.3416C11.9534 14.0225 10.0668 12.1358 7.74763 12.1358C5.42849 12.1358 3.54185 14.0225 3.54185 16.3416V17.9561C1.90381 18.3284 0.677344 19.7961 0.677344 21.5455C0.677344 23.5751 2.32839 25.2261 4.35797 25.2261C6.38756 25.2261 8.0386 23.5751 8.0386 21.5455C8.0386 19.7961 6.81213 18.3284 5.1741 17.9561V16.3416C5.1741 14.9227 6.32869 13.7681 7.74763 13.7681C9.16657 13.7681 10.3212 14.9227 10.3212 16.3416V21.2529C10.3212 23.4965 12.1463 25.3216 14.3898 25.3216C16.6334 25.3216 18.4585 23.4965 18.4585 21.2529V20.7564L20.5259 15.8768C20.7522 15.749 20.9719 15.6062 21.183 15.447C22.2112 14.6714 22.9419 13.6066 23.2957 12.3682L25.1964 5.71582C25.475 4.74084 25.2844 3.71649 24.6737 2.90695C24.063 2.09736 23.1305 1.63271 22.1164 1.63271H21.8004V1.49401C21.8004 1.04328 21.435 0.67788 20.9843 0.67788C20.5335 0.67788 20.1681 1.04328 20.1681 1.49401V3.40367C20.1681 3.85439 20.5335 4.2198 20.9843 4.2198C21.435 4.2198 21.8004 3.85439 21.8004 3.40367V3.26496H22.1164C22.6142 3.26496 23.0708 3.49253 23.3706 3.88989C23.6703 4.28726 23.7637 4.78888 23.6269 5.26749L23.7231 5.29496L23.6269 5.26749L21.7262 11.9199C21.2081 13.7334 19.5284 15.0003 17.6423 15.0003C15.7563 15.0003 14.0766 13.7334 13.5585 11.9199L11.6578 5.26744C11.5211 4.78883 11.6144 4.28721 11.9142 3.88984L11.8343 3.82962L11.9142 3.88984C12.2139 3.49243 12.6706 3.26492 13.1683 3.26492H13.4843V3.40363C13.4843 3.85435 13.8497 4.21975 14.3004 4.21975C14.7511 4.21975 15.1165 3.85435 15.1165 3.40363V1.49396C15.1165 1.04324 14.7511 0.677832 14.3004 0.677832C13.8497 0.677832 13.4843 1.04324 13.4843 1.49396V1.63267H13.1683C12.1543 1.63267 11.2217 2.09736 10.611 2.9069C10.0003 3.7165 9.80976 4.7408 10.0884 5.71583L11.9891 12.3682C12.3429 13.6066 13.0736 14.6714 14.1018 15.447ZM6.40635 21.5455C6.40635 22.6749 5.48736 23.5938 4.35797 23.5938C3.22859 23.5938 2.3096 22.6749 2.3096 21.5455C2.3096 20.4161 3.22859 19.4971 4.35797 19.4971C5.48736 19.4971 6.40635 20.4161 6.40635 21.5455ZM18.4568 16.5764L17.6424 18.4986L16.828 16.5764C17.0957 16.6135 17.3676 16.6326 17.6424 16.6326C17.9173 16.6326 18.1891 16.6135 18.4568 16.5764Z" fill="white" stroke="white" stroke-width="0.2"/>
</svg>
