<svg width="44" height="58" viewBox="0 0 44 58" fill="none" xmlns="http://www.w3.org/2000/svg">
<path d="M19.739 56.8298C3.09031 32.9684 0 30.5194 0 21.75C0 9.73777 9.8497 0 22 0C34.1503 0 44 9.73777 44 21.75C44 30.5194 40.9097 32.9684 24.261 56.8298C23.1684 58.3901 20.8315 58.39 19.739 56.8298ZM22 30.8125C27.0626 30.8125 31.1667 26.7551 31.1667 21.75C31.1667 16.7449 27.0626 12.6875 22 12.6875C16.9374 12.6875 12.8333 16.7449 12.8333 21.75C12.8333 26.7551 16.9374 30.8125 22 30.8125Z" fill="#015190"/>
</svg>
