<svg width="32" height="42" viewBox="0 0 32 42" fill="none" xmlns="http://www.w3.org/2000/svg">
<path d="M16 18.75C17.78 18.75 19.5201 18.2222 21.0001 17.2332C22.4802 16.2443 23.6337 14.8387 24.3149 13.1942C24.9961 11.5496 25.1743 9.74002 24.8271 7.99419C24.4798 6.24836 23.6226 4.64471 22.364 3.38604C21.1053 2.12737 19.5016 1.2702 17.7558 0.922933C16.01 0.575666 14.2004 0.753896 12.5558 1.43508C10.9113 2.11627 9.50571 3.26983 8.51677 4.74987C7.52784 6.22991 7 7.96997 7 9.75C7 12.1369 7.94821 14.4261 9.63604 16.114C11.3239 17.8018 13.6131 18.75 16 18.75Z" fill="#015190"/>
<path d="M29.5 41.25C30.0967 41.25 30.669 41.013 31.091 40.591C31.5129 40.169 31.75 39.5967 31.75 39C31.75 34.8228 30.0906 30.8168 27.1369 27.8631C24.1832 24.9094 20.1772 23.25 16 23.25C11.8228 23.25 7.81677 24.9094 4.86307 27.8631C1.90937 30.8168 0.25 34.8228 0.25 39C0.25 39.5967 0.487053 40.169 0.90901 40.591C1.33097 41.013 1.90326 41.25 2.5 41.25H29.5Z" fill="#015190"/>
</svg>
