<svg id="visual" viewBox="0 0 900 600" width="900" height="600" xmlns="http://www.w3.org/2000/svg" xmlns:xlink="http://www.w3.org/1999/xlink" version="1.1"><path d="M0 477L30 469.8C60 462.7 120 448.3 180 443.8C240 439.3 300 444.7 360 452.5C420 460.3 480 470.7 540 449C600 427.3 660 373.7 720 369.8C780 366 840 412 870 435L900 458L900 601L870 601C840 601 780 601 720 601C660 601 600 601 540 601C480 601 420 601 360 601C300 601 240 601 180 601C120 601 60 601 30 601L0 601Z" fill="#43cb8c" stroke-linecap="round" stroke-linejoin="miter"></path></svg>